<?xml version="1.0" standalone="no"?>
<!DOCTYPE svg PUBLIC "-//W3C//DTD SVG 20010904//EN"
 "http://www.w3.org/TR/2001/REC-SVG-20010904/DTD/svg10.dtd">
<svg version="1.0" xmlns="http://www.w3.org/2000/svg"
 width="2400.000000pt" height="1128.000000pt" viewBox="0 0 2400.000000 1128.000000"
 preserveAspectRatio="xMidYMid meet">
<g transform="translate(0.000000,1128.000000) scale(0.100000,-0.100000)"
fill="#AF8C70" stroke="none">
<path d="M6625 9070 c-38 -4 -88 -13 -110 -19 -22 -6 -55 -11 -74 -11 -35 0
-157 -26 -281 -61 -86 -24 -283 -116 -326 -152 -16 -13 -63 -47 -104 -75 -41
-28 -101 -79 -133 -114 -32 -35 -73 -79 -91 -98 -18 -19 -48 -62 -66 -95 -19
-33 -37 -62 -42 -65 -28 -20 -128 -295 -128 -354 0 -13 -8 -34 -18 -46 -31
-38 -61 -21 -112 62 -135 218 -387 360 -690 387 -262 23 -283 21 -314 -26 -25
-41 -25 -51 4 -318 10 -96 58 -252 90 -297 11 -15 20 -33 20 -41 0 -24 139
-231 169 -252 34 -23 76 -57 129 -101 83 -70 279 -127 427 -123 221 4 215 8
215 -107 0 -81 -18 -116 -60 -115 -216 6 -269 1 -527 -54 -118 -25 -420 -142
-463 -179 -8 -7 -32 -19 -52 -25 -21 -7 -40 -17 -44 -22 -3 -5 -29 -21 -57
-35 -89 -45 -289 -201 -416 -324 -96 -94 -208 -220 -237 -268 -19 -31 -48 -75
-65 -97 -64 -85 -120 -174 -130 -206 -7 -19 -23 -49 -36 -66 -13 -18 -30 -51
-38 -73 -8 -22 -25 -56 -39 -77 -15 -21 -26 -44 -26 -53 -1 -8 -8 -33 -16 -55
-30 -81 -103 -344 -130 -465 -36 -159 -42 -603 -11 -740 10 -41 26 -115 36
-165 11 -49 25 -103 31 -120 7 -16 23 -68 35 -115 42 -155 125 -358 168 -409
7 -9 28 -45 46 -81 32 -65 49 -90 127 -192 22 -29 49 -69 59 -88 23 -45 275
-296 380 -378 44 -34 98 -77 119 -95 22 -18 57 -41 77 -52 21 -11 85 -46 142
-78 57 -31 110 -57 118 -57 8 0 34 -14 59 -30 25 -16 52 -30 60 -30 8 0 40
-12 70 -26 247 -117 685 -187 1045 -165 311 18 788 156 975 281 14 10 36 20
50 23 14 4 43 22 65 40 22 19 61 43 87 55 25 11 66 38 90 60 24 22 57 46 73
55 44 23 263 230 339 322 37 44 78 94 93 110 29 33 125 172 190 276 22 37 60
111 83 165 23 55 56 128 72 163 81 180 157 607 157 881 0 193 -41 503 -79 600
-6 14 -14 50 -19 80 -5 30 -23 84 -39 120 -17 36 -37 85 -45 110 -43 125 -116
275 -162 331 -11 14 -34 51 -50 82 -15 32 -48 81 -73 109 -25 29 -52 64 -60
78 -73 116 -399 430 -510 490 -20 11 -62 38 -92 60 -30 22 -75 50 -100 62 -25
13 -59 33 -77 46 -17 12 -38 22 -45 22 -8 0 -41 13 -74 29 -120 59 -211 93
-299 111 -49 10 -121 26 -160 35 -46 11 -129 18 -245 20 -96 2 -181 4 -187 4
-41 3 -60 158 -24 202 19 23 24 24 178 25 224 2 338 25 491 99 64 32 130 67
146 80 17 12 54 34 81 48 67 34 243 194 290 263 20 31 54 75 76 99 21 23 45
58 54 78 8 20 19 38 24 41 5 4 13 21 16 39 4 17 13 39 20 47 21 24 82 216 106
335 20 97 23 141 23 363 l1 254 -33 29 c-35 32 -56 34 -197 19z m24 -226 c25
-32 26 -58 6 -219 -34 -277 -53 -353 -119 -475 -7 -14 -19 -42 -25 -62 -7 -21
-27 -56 -44 -77 -18 -22 -43 -56 -57 -77 -108 -158 -425 -384 -596 -425 -27
-6 -79 -26 -116 -45 -74 -38 -152 -49 -168 -24 -24 38 -25 36 171 243 86 91
197 211 313 339 107 117 214 226 249 255 78 61 89 122 32 172 -76 67 -110 54
-236 -89 -45 -52 -115 -129 -153 -171 -173 -187 -299 -335 -360 -423 -15 -22
-38 -52 -51 -66 -13 -14 -32 -44 -44 -68 -24 -48 -39 -57 -76 -48 -73 18 -53
130 82 456 89 213 289 480 427 567 39 25 82 56 96 68 55 47 249 122 365 140
61 10 135 26 165 35 81 27 114 25 139 -6z m-2136 -613 c258 -54 476 -213 619
-451 90 -149 94 -256 11 -235 -28 7 -157 133 -214 210 -17 22 -69 82 -116 133
-100 108 -137 120 -194 63 -62 -63 -33 -109 171 -273 107 -85 210 -200 210
-232 0 -62 -117 -50 -225 24 -22 15 -56 35 -75 45 -64 33 -218 201 -255 279
-97 202 -138 374 -104 438 12 22 61 22 172 -1z m643 -1345 c19 -14 20 -24 18
-348 -1 -183 -3 -336 -3 -340 -1 -11 -63 -25 -182 -43 -180 -26 -382 -103
-550 -208 -126 -79 -376 -331 -426 -431 -14 -28 -39 -66 -54 -84 -16 -18 -29
-37 -29 -43 0 -5 -9 -22 -21 -38 -23 -31 -104 -255 -124 -341 -35 -156 -40
-200 -38 -370 1 -96 6 -195 11 -220 20 -95 63 -245 77 -266 7 -12 21 -47 29
-80 8 -32 24 -70 35 -85 11 -14 36 -59 57 -99 20 -40 51 -89 68 -109 18 -20
45 -54 61 -76 89 -121 255 -268 380 -340 28 -15 66 -38 85 -51 19 -13 60 -32
90 -43 30 -11 86 -31 124 -45 306 -114 716 -107 1036 19 47 18 95 36 107 40
12 3 51 25 85 49 35 24 79 50 98 60 72 34 255 190 313 266 23 30 53 66 68 80
15 14 39 50 55 80 15 30 47 91 72 134 175 313 230 772 131 1095 -10 35 -19 75
-19 90 0 15 -7 37 -16 49 -8 12 -22 46 -30 74 -9 29 -33 80 -53 113 -21 33
-55 93 -76 133 -21 39 -42 72 -46 72 -4 0 -43 43 -87 95 -44 52 -102 111 -128
131 -27 21 -71 57 -99 82 -27 25 -61 49 -75 55 -14 6 -54 30 -90 53 -36 22
-87 49 -115 59 -27 10 -57 24 -65 31 -36 30 -206 71 -348 84 -138 12 -134 7
-128 205 4 88 1 227 -5 309 -15 201 -2 224 115 198 28 -6 101 -21 161 -32 61
-12 130 -28 155 -37 25 -8 79 -23 120 -32 41 -10 100 -29 131 -44 31 -15 61
-27 67 -27 18 0 322 -159 370 -194 24 -17 69 -50 100 -73 31 -23 70 -49 86
-59 51 -29 338 -330 366 -384 7 -14 30 -45 51 -70 37 -45 90 -132 150 -245 17
-33 39 -71 49 -85 27 -38 147 -405 160 -490 7 -41 18 -102 26 -135 29 -125 29
-412 1 -585 -15 -85 -29 -177 -33 -205 -3 -27 -15 -70 -25 -95 -10 -25 -25
-74 -33 -110 -19 -85 -64 -198 -124 -310 -11 -19 -26 -48 -35 -65 -39 -76 -90
-156 -139 -217 -29 -37 -70 -91 -92 -121 -41 -58 -299 -317 -315 -317 -6 0
-45 -29 -87 -65 -43 -35 -105 -79 -138 -96 -34 -18 -83 -46 -111 -64 -133 -85
-276 -143 -532 -215 -392 -112 -876 -89 -1258 59 -82 32 -164 61 -181 64 -17
3 -77 35 -132 72 -56 36 -105 65 -108 65 -11 0 -185 119 -219 150 -16 15 -46
37 -65 50 -49 33 -232 223 -283 294 -23 32 -58 77 -78 100 -43 49 -109 144
-109 158 0 5 -29 62 -65 126 -263 477 -323 1067 -163 1607 52 176 100 309 124
340 12 17 34 55 48 85 61 127 105 200 175 290 102 129 243 286 305 338 28 23
74 62 101 86 28 23 77 60 110 80 33 21 69 46 80 56 67 60 429 221 575 256 71
17 156 38 310 79 143 38 168 41 196 21z m279 -917 c33 -5 102 -22 154 -39 51
-16 101 -30 111 -30 50 0 245 -112 371 -213 111 -88 145 -123 231 -238 57 -74
85 -122 170 -290 10 -19 25 -64 32 -100 8 -35 22 -95 31 -134 41 -174 43 -368
5 -500 -11 -38 -27 -100 -35 -136 -8 -37 -18 -75 -22 -85 -9 -27 -136 -253
-166 -296 -45 -67 -208 -237 -261 -272 -28 -18 -60 -43 -70 -55 -23 -25 -269
-151 -296 -151 -10 0 -46 -11 -81 -24 -122 -46 -384 -64 -539 -37 -96 17 -271
71 -299 93 -13 10 -27 18 -31 18 -4 0 -23 7 -41 15 -253 114 -504 373 -611
630 -16 39 -35 84 -43 100 -61 136 -103 465 -76 595 7 30 16 75 21 100 14 70
46 171 69 217 12 23 21 47 21 52 0 15 81 170 92 177 5 3 26 32 45 63 114 181
463 445 628 475 22 4 81 21 131 37 141 45 294 54 459 28z"/>
<path d="M19852 5940 c-101 -11 -128 -24 -166 -84 -19 -28 -84 -109 -146 -181
-62 -71 -132 -156 -157 -187 -70 -91 -109 -109 -138 -64 -18 28 -13 118 21
339 l18 118 -26 26 c-32 32 -158 44 -206 19 -54 -28 -56 -35 -42 -159 11 -96
13 -441 6 -940 -1 -86 65 -116 189 -87 61 14 68 30 59 135 -17 203 -16 206 88
317 46 49 129 28 147 -38 5 -19 22 -52 38 -71 40 -51 151 -222 167 -258 31
-65 84 -89 228 -100 116 -8 145 6 127 67 -5 18 -9 34 -9 35 0 1 -28 30 -61 65
-34 35 -71 77 -83 94 -19 28 -68 90 -154 194 -16 19 -35 46 -42 60 -7 14 -32
45 -55 70 -99 107 -97 118 26 225 50 44 126 112 168 151 42 38 99 87 128 109
85 63 95 125 25 145 -40 11 -43 11 -150 0z"/>
<path d="M10260 5933 c-87 -14 -240 -102 -321 -182 -169 -169 -217 -497 -104
-709 56 -107 101 -161 148 -181 23 -10 49 -26 56 -35 20 -24 54 -40 151 -72
174 -56 378 -24 525 82 33 24 70 51 82 59 12 8 38 43 58 78 20 34 45 77 57 94
51 83 67 320 30 445 -48 161 -137 264 -309 356 -121 66 -242 87 -373 65z m232
-258 c78 -32 159 -103 194 -173 27 -53 29 -66 29 -167 0 -181 -68 -283 -243
-363 -125 -57 -317 28 -408 180 -95 159 -39 379 126 493 95 66 188 75 302 30z"/>
<path d="M11221 5919 l-34 -20 8 -112 c4 -62 10 -245 14 -407 4 -204 10 -302
19 -317 6 -12 17 -44 23 -71 11 -52 68 -132 95 -132 8 0 31 -15 51 -34 21 -18
49 -37 63 -41 14 -4 34 -13 45 -20 125 -78 394 -47 513 59 20 18 47 39 60 45
15 8 41 49 70 109 l47 96 2 325 c2 179 8 356 13 393 17 114 -12 144 -138 146
-125 3 -122 15 -112 -395 10 -433 1 -477 -105 -538 -117 -66 -191 -65 -296 5
-111 73 -119 117 -101 595 9 260 5 307 -28 325 -36 19 -171 12 -209 -11z"/>
<path d="M13753 5929 c-50 -15 -56 -36 -49 -168 15 -240 23 -806 14 -869 -22
-145 -12 -151 254 -147 117 1 290 -1 383 -6 l170 -8 28 30 c42 46 31 193 -18
225 -22 14 -284 8 -466 -12 -49 -5 -59 -3 -83 18 l-28 24 1 189 c0 105 6 294
12 421 13 242 10 277 -19 293 -28 15 -163 22 -199 10z"/>
<path d="M15435 5929 c-38 -5 -202 -8 -364 -7 -262 2 -294 0 -305 -14 -9 -13
-12 -151 -10 -569 3 -542 3 -552 23 -573 20 -19 30 -20 238 -17 120 1 301 -3
402 -9 176 -11 186 -10 210 8 33 25 40 109 16 183 -22 66 -40 73 -165 59 -54
-6 -102 -10 -106 -8 -5 1 -75 -2 -156 -6 -180 -10 -205 -5 -224 40 -23 54 -18
166 8 199 l21 27 156 -6 c86 -3 201 -8 256 -12 l100 -6 24 32 c26 37 25 108
-4 177 l-15 36 -78 -6 c-440 -33 -420 -32 -450 -10 -45 33 -43 177 3 231 22
26 27 27 102 24 91 -3 356 -21 428 -28 72 -8 99 22 100 109 2 152 -22 168
-210 146z"/>
<path d="M16775 5930 c-22 -5 -62 -21 -90 -37 -27 -16 -66 -38 -85 -48 -56
-32 -175 -157 -218 -231 -94 -161 -88 -420 12 -575 104 -159 105 -160 279
-251 174 -90 446 -69 586 45 21 18 52 39 68 48 53 29 158 225 193 359 31 118
-26 342 -119 465 -23 30 -45 55 -50 55 -4 0 -19 10 -33 23 -39 36 -104 76
-186 114 -83 38 -259 55 -357 33z m282 -249 c154 -79 225 -213 210 -397 -12
-135 -81 -230 -219 -300 -197 -100 -487 113 -488 358 0 123 105 275 235 340
72 35 192 35 262 -1z"/>
<path d="M18119 5911 c-16 -16 -29 -36 -29 -44 0 -14 -75 -192 -90 -212 -4 -5
-15 -35 -26 -65 -10 -30 -24 -62 -31 -71 -7 -8 -22 -42 -34 -75 -12 -32 -31
-86 -43 -119 -11 -33 -33 -82 -49 -109 -15 -27 -30 -61 -33 -75 -8 -37 -92
-208 -127 -258 -62 -88 -31 -153 72 -153 123 1 182 57 221 212 21 83 20 82
278 85 260 2 262 2 281 -74 7 -26 18 -61 26 -78 7 -16 19 -45 25 -63 19 -50
47 -62 149 -69 79 -5 94 -4 111 12 28 26 26 76 -5 113 -14 17 -25 33 -25 36 0
3 -27 60 -60 126 -32 66 -66 141 -74 167 -8 27 -35 90 -61 141 -25 51 -58 123
-71 160 -14 37 -30 72 -35 78 -5 6 -17 35 -28 65 -16 46 -84 200 -110 249 -29
56 -183 70 -232 21z m118 -331 c28 -10 73 -77 73 -109 0 -7 18 -49 40 -93 71
-144 55 -169 -106 -161 -119 6 -151 14 -161 39 -6 16 54 207 82 261 8 15 15
33 15 39 0 8 19 34 26 34 0 0 14 -5 31 -10z"/>
<path d="M8525 5904 c-24 -22 -27 -30 -20 -67 8 -51 7 -850 -1 -964 -6 -77 -5
-83 17 -105 l24 -24 260 3 c265 2 291 6 405 48 25 9 52 23 60 30 8 7 36 22 61
32 74 29 198 192 220 289 21 92 22 252 4 344 -31 154 -143 283 -310 359 -153
70 -144 68 -472 75 l-221 5 -27 -25z m554 -236 c160 -49 251 -170 251 -334 0
-105 -55 -245 -103 -260 -12 -4 -40 -22 -61 -40 -45 -39 -90 -54 -158 -54 -26
0 -79 -5 -117 -12 -131 -22 -143 -1 -130 241 6 110 5 212 -1 284 -13 153 -13
155 16 184 25 25 27 26 131 19 58 -4 135 -17 172 -28z"/>
<path d="M12519 5914 c-18 -23 -20 -1137 -1 -1156 11 -11 564 -15 632 -4 75
12 173 47 210 75 19 15 47 35 63 44 15 10 27 24 27 31 0 7 10 35 21 62 37 83
12 234 -48 282 -18 15 -49 40 -68 56 -59 48 -61 60 -16 108 89 98 106 166 71
282 -27 85 -63 125 -152 169 -108 51 -142 56 -384 56 -121 0 -247 3 -279 6
-51 6 -62 4 -76 -11z m598 -234 c91 -73 81 -185 -20 -230 -68 -31 -305 -29
-343 3 -45 39 -48 185 -4 228 l31 31 152 -3 c145 -4 154 -5 184 -29z m50 -443
c90 -47 100 -189 17 -244 -20 -13 -65 -18 -207 -25 -245 -12 -246 -11 -253
152 -5 143 -8 141 232 135 133 -3 191 -8 211 -18z"/>
<path d="M18155 4344 c-128 -27 -215 -79 -294 -175 -83 -100 -107 -297 -52
-415 79 -168 194 -244 371 -244 136 0 312 60 335 113 14 34 10 282 -6 334 -14
45 -58 50 -247 27 -111 -14 -113 -121 -2 -138 125 -19 124 -133 -1 -166 -231
-63 -382 182 -243 393 46 70 164 98 259 61 119 -47 195 -20 195 70 0 69 -19
82 -165 120 -98 26 -112 28 -150 20z"/>
<path d="M14041 4315 c-159 -52 -220 -191 -150 -339 22 -47 105 -89 225 -116
72 -16 133 -48 149 -79 51 -100 -102 -137 -223 -54 -95 64 -229 -23 -185 -120
28 -61 207 -106 343 -87 184 26 263 104 246 245 -15 126 -87 185 -308 249
-113 33 -121 125 -14 152 25 6 102 -17 141 -43 49 -33 147 6 153 61 6 53 -6
75 -56 100 -119 60 -205 68 -321 31z"/>
<path d="M10257 4314 c-95 -23 -161 -71 -226 -164 -104 -149 -117 -259 -48
-395 106 -211 282 -292 510 -234 149 38 204 89 173 162 -33 79 -96 95 -174 43
-102 -66 -217 -55 -286 26 -97 113 -91 227 21 345 55 59 176 59 262 -1 62 -42
72 -43 118 -15 64 40 80 102 36 144 -99 94 -235 126 -386 89z"/>
<path d="M11245 4323 c-146 -20 -292 -127 -351 -258 -98 -218 49 -496 287
-541 251 -48 443 70 495 303 32 146 -43 356 -143 398 -18 8 -33 18 -33 23 0
21 -205 96 -223 81 -1 -1 -15 -4 -32 -6z m139 -197 c79 -33 139 -171 116 -271
-13 -56 -87 -149 -133 -165 -119 -41 -259 20 -296 129 -38 114 14 253 114 305
38 20 154 21 199 2z"/>
<path d="M11965 4317 c-53 -24 -58 -46 -47 -208 5 -79 7 -174 5 -212 -6 -77 5
-131 48 -226 98 -220 445 -232 582 -21 50 76 55 112 58 383 l3 237 -24 25
c-45 44 -103 44 -146 1 -36 -36 -36 -37 -28 -94 19 -122 11 -424 -11 -453 -52
-70 -152 -92 -222 -49 -77 47 -88 102 -68 363 l15 201 -28 29 c-34 34 -92 44
-137 24z"/>
<path d="M15100 4319 c-47 -5 -141 -8 -210 -7 -185 2 -209 -20 -189 -170 8
-57 10 -170 6 -328 -7 -268 -5 -275 57 -292 19 -6 52 -6 77 -1 24 4 67 6 94 4
28 -3 114 -7 192 -10 l141 -5 32 27 c71 59 14 171 -79 159 -25 -3 -107 -9
-182 -12 l-135 -7 -22 28 c-30 38 -29 95 2 132 l24 27 129 -11 c171 -16 233 2
233 69 0 77 -45 94 -209 79 -144 -13 -172 -7 -191 39 -15 36 -3 77 27 97 21
14 48 15 195 10 l170 -6 29 29 c45 44 35 125 -18 149 -26 12 -47 12 -173 0z"/>
<path d="M15600 4317 c-44 -22 -50 -50 -39 -187 5 -69 9 -226 8 -349 l-2 -224
24 -18 c13 -10 31 -19 39 -19 8 0 118 -1 243 -3 l228 -3 26 30 c32 39 26 99
-14 134 -26 24 -28 24 -184 17 l-157 -7 -17 25 c-15 23 -15 49 -7 279 10 270
6 305 -36 327 -28 15 -81 14 -112 -2z"/>
<path d="M12931 4306 c-37 -20 -49 -52 -40 -100 11 -55 10 -285 -1 -481 l-9
-160 29 -27 c66 -61 189 -16 177 65 -36 243 -41 315 -23 342 l17 26 32 -24
c18 -14 60 -62 94 -108 59 -80 77 -109 159 -242 51 -83 139 -117 190 -74 l26
23 0 355 c0 385 0 390 -38 407 -96 44 -168 -19 -146 -127 29 -141 27 -311 -4
-311 -23 0 -110 86 -130 128 -23 50 -86 142 -114 167 -12 11 -32 40 -45 65
-35 69 -121 106 -174 76z"/>
<path d="M16364 4296 c-22 -19 -28 -31 -26 -62 1 -22 4 -178 8 -349 6 -342 7
-345 70 -371 38 -16 85 -3 113 30 15 18 20 682 6 727 -16 50 -125 66 -171 25z"/>
<path d="M16859 4309 c-44 -16 -50 -48 -40 -213 4 -83 4 -234 -1 -340 l-9
-191 31 -27 c45 -42 118 -40 154 3 31 37 31 22 6 189 -31 211 -24 268 30 244
26 -12 117 -128 182 -234 136 -223 189 -263 275 -210 l33 19 -5 173 c-3 95 -1
251 4 347 11 195 7 218 -49 241 -39 16 -98 7 -124 -20 -26 -25 -27 -95 -6
-278 15 -127 12 -141 -24 -142 -16 0 -89 86 -136 160 -25 40 -60 89 -77 110
-18 20 -33 42 -33 47 0 25 -67 97 -107 114 -49 21 -65 22 -104 8z"/>
</g>
</svg>
